<?xml version="1.0" standalone="no"?><!DOCTYPE svg PUBLIC "-//W3C//DTD SVG 1.1//EN" "http://www.w3.org/Graphics/SVG/1.1/DTD/svg11.dtd"><svg t="1559461698406" class="icon" style="" viewBox="0 0 2051 1024" version="1.1" xmlns="http://www.w3.org/2000/svg" p-id="3482" xmlns:xlink="http://www.w3.org/1999/xlink" width="400.5859375" height="200"><defs><style type="text/css"></style></defs><path d="M2030.777206 127.720528c21.888557-35.277324 14.603023-82.313756-14.603023-109.762325-32.848812-27.432593-76.641903-19.587862-102.189204 15.689462-3.658744 3.914377-408.788771 517.368795-890.560702 517.368795-467.168908 0-890.560701-517.368795-894.203468-521.283172-25.563278-31.362947-73.015113-35.277324-102.205181-7.828754C-2.17444 49.305173-5.833185 100.255981 19.714116 131.618928c7.301511 11.759108 94.90367 117.591079 233.584454 235.182159L67.165951 574.534676c-29.206045 31.362947-25.563278 82.313756 3.642768 109.762325 7.301511 15.657508 25.563278 23.502239 43.809067 23.502239s36.49158-7.828754 51.094603-23.518216l200.735641-223.407074c94.90367 70.554648 208.037153 137.194918 332.130891 184.215373l-76.641903 278.288237c-10.944278 43.122055 10.960255 86.228132 51.094602 97.98724h21.888557c32.864789 0 62.054858-23.518216 69.356369-58.79554L840.934426 684.297001c58.396113 11.759108 120.434994 19.603839 182.489851 19.603839 62.038881 0 124.093738-7.828754 182.489852-19.603839l76.641903 274.373859c7.301511 35.277324 40.150324 58.79554 69.340392 58.79554 7.301511 0 14.603023 0 18.261767-3.930354 40.150324-11.759108 62.038881-54.865186 51.094602-97.98724l-76.641903-274.357883c124.093738-47.036432 237.227221-113.660725 332.130891-184.215373l197.092874 219.492697c14.587046 15.673485 32.848812 23.518216 51.094602 23.518216s36.49158-7.828754 51.094602-23.518216c29.206045-31.362947 29.206045-78.383402 3.642767-109.762325l-186.132618-207.717612c149.641039-117.591079 237.243198-231.251805 237.243198-231.251805z" fill="" p-id="3483"></path></svg>