<?xml version="1.0" standalone="no"?><!DOCTYPE svg PUBLIC "-//W3C//DTD SVG 1.1//EN" "http://www.w3.org/Graphics/SVG/1.1/DTD/svg11.dtd"><svg t="1559461738903" class="icon" style="" viewBox="0 0 1024 1024" version="1.1" xmlns="http://www.w3.org/2000/svg" p-id="3593" xmlns:xlink="http://www.w3.org/1999/xlink" width="200" height="200"><defs><style type="text/css"></style></defs><path d="M512 128C239.296 128 0 367.36 0 512s239.296 384 512 384 512-239.296 512-384-239.296-384-512-384z m0 704c-254.08 0-448-227.2-448-320s193.92-320 448-320 448 227.2 448 320-193.856 320-448 320z" p-id="3594"></path><path d="M512 320a192 192 0 1 0 192 192 192 192 0 0 0-192-192z m0 320a128 128 0 1 1 128-128 128 128 0 0 1-128 128z" p-id="3595"></path></svg>