<?xml version="1.0" standalone="no"?><!DOCTYPE svg PUBLIC "-//W3C//DTD SVG 1.1//EN" "http://www.w3.org/Graphics/SVG/1.1/DTD/svg11.dtd"><svg t="1559462596457" class="icon" style="" viewBox="0 0 1024 1024" version="1.1" xmlns="http://www.w3.org/2000/svg" p-id="4314" xmlns:xlink="http://www.w3.org/1999/xlink" width="200" height="200"><defs><style type="text/css"></style></defs><path d="M836.062 401.136h-31.723v-27.63c0-0.342-0.012-0.683-0.025-1.023 0.013-0.34 0.025-0.68 0.025-1.023 0-79.54-30.975-154.32-87.217-210.564-56.244-56.243-131.023-87.218-210.565-87.218-79.54 0-154.32 30.975-210.564 87.218-56.244 56.244-87.218 131.024-87.218 210.564 0 0.343 0.012 0.684 0.026 1.023-0.014 0.34-0.026 0.681-0.026 1.024v27.629h-27.63c-36.676 0-66.514 29.839-66.514 66.515v409.322c0 36.677 29.838 66.515 66.515 66.515h654.916c36.676 0 66.515-29.838 66.515-66.515V467.651c0-36.676-29.84-66.515-66.515-66.515z m-576.146-28.653c0.013-0.34 0.025-0.68 0.025-1.023 0-65.874 25.653-127.805 72.232-174.385 46.58-46.58 108.51-72.232 174.384-72.232 65.874 0 127.805 25.653 174.385 72.232 46.58 46.58 72.232 108.51 72.232 174.385 0 0.343 0.012 0.684 0.025 1.023-0.013 0.34-0.025 0.681-0.025 1.024v27.629H259.94v-27.63c0.001-0.343-0.011-0.683-0.024-1.023z m591.495 504.49c0 8.464-6.886 15.35-15.35 15.35H181.147c-8.464 0-15.35-6.886-15.35-15.35V467.651c0-8.464 6.886-15.35 15.35-15.35h654.916c8.463 0 15.35 6.886 15.35 15.35v409.322z" p-id="4315"></path><path d="M508.604 523.933c-59.247 0-107.448 48.2-107.448 107.447 0 33.027 15.374 64.139 40.933 84.35v38.447c0 36.676 29.838 66.515 66.515 66.515h4.093c36.676 0 66.515-29.839 66.515-66.515v-41.815c23.287-20.274 36.839-49.629 36.839-80.982 0-59.246-48.2-107.447-107.447-107.447z m30.934 154.457l-11.49 7.583v68.204c0 8.463-6.886 15.35-15.35 15.35h-4.093c-8.464 0-15.35-6.887-15.35-15.35v-66.665l-12.769-7.389c-17.371-10.053-28.163-28.73-28.163-48.743 0-31.034 25.248-56.282 56.282-56.282 31.033 0 56.282 25.248 56.282 56.282-0.002 18.96-9.476 36.534-25.349 47.01z" p-id="4316"></path></svg>