<?xml version="1.0" standalone="no"?><!DOCTYPE svg PUBLIC "-//W3C//DTD SVG 1.1//EN" "http://www.w3.org/Graphics/SVG/1.1/DTD/svg11.dtd"><svg t="1558441988848" class="icon" style="" viewBox="0 0 1024 1024" version="1.1" xmlns="http://www.w3.org/2000/svg" p-id="1161" xmlns:xlink="http://www.w3.org/1999/xlink" width="200" height="200"><defs><style type="text/css"></style></defs><path d="M856.32 920.96c-8.32 0-17.28-3.2-23.68-10.24l-222.72-240c-5.76-6.4-8.96-14.72-8.32-23.04s4.48-16.64 10.24-22.4c9.6-8.32 18.56-17.92 26.88-27.52 83.2-99.2 82.56-248.32-1.28-346.88-49.92-58.88-122.88-93.44-199.68-95.36-76.8-1.92-151.04 29.44-203.52 85.76-94.08 101.12-96 260.48-3.84 362.88 52.48 58.88 127.36 91.52 205.44 90.24h0.64c17.28 0 32 14.08 32 31.36 0 17.92-14.08 32-31.36 32.64-96.64 1.92-189.44-39.04-254.72-111.36-113.92-127.36-111.36-324.48 5.12-449.28 64.64-69.76 156.16-108.8 251.52-106.88 94.72 1.92 184.96 44.8 247.04 117.76 104.32 122.24 104.96 306.56 1.92 429.44-3.2 3.84-6.4 7.68-9.6 10.88l201.6 217.6c12.16 12.8 11.52 33.28-1.92 45.44-5.76 6.4-14.08 8.96-21.76 8.96z" fill="currentColor" p-id="1162"></path></svg>