<?xml version="1.0" standalone="no"?><!DOCTYPE svg PUBLIC "-//W3C//DTD SVG 1.1//EN" "http://www.w3.org/Graphics/SVG/1.1/DTD/svg11.dtd"><svg t="1559461558955" class="icon" style="" viewBox="0 0 1024 1024" version="1.1" xmlns="http://www.w3.org/2000/svg" p-id="2008" xmlns:xlink="http://www.w3.org/1999/xlink" width="200" height="200"><defs><style type="text/css"></style></defs><path d="M814.1 751.3c-5.1-16.7-22.9-26-39.5-21-16.7 5.1-26.1 22.9-21 39.6 7.4 24 11.1 49.1 11.1 74.5 0 17.5 14.2 31.7 31.7 31.7s31.7-14.2 31.7-31.7c-0.1-31.7-4.8-63.1-14-93.1zM704.7 593.6c-21.5-16.6-44.7-30.1-69.1-40.5 58.8-39.9 97.5-107.2 97.5-183.5 0-122.2-99.4-221.6-221.6-221.6s-221.6 99.4-221.6 221.6c0 76.3 38.8 143.7 97.6 183.6C274.5 601.5 195 713.8 195 844.3c0 17.5 14.2 31.7 31.7 31.7s31.7-14.2 31.7-31.7c0-139.6 113.6-253.2 253.2-253.2 56.5 0 109.9 18.2 154.5 52.6 13.8 10.7 33.7 8.1 44.4-5.7 10.6-13.8 8-33.7-5.8-44.4z m-351.5-224c0-87.3 71-158.3 158.3-158.3s158.3 71 158.3 158.3-71 158.3-158.3 158.3-158.3-71.1-158.3-158.3z" p-id="2009"></path><path d="M743.6 691.4m-31.7 0a31.7 31.7 0 1 0 63.4 0 31.7 31.7 0 1 0-63.4 0Z" p-id="2010" fill="#ffffff"></path></svg>